<?xml version="1.0" encoding="utf-8" ?><svg xmlns="http://www.w3.org/2000/svg" xmlns:xlink="http://www.w3.org/1999/xlink" width="432" height="432" viewBox="0 0 432 432"><path transform="scale(0.84375 0.84375)" d="M263.669 431.873C163.818 436.074 79.4662 358.538 75.2596 258.687C71.053 158.837 148.585 74.4804 248.435 70.2681C348.293 66.0555 432.658 143.595 436.865 243.453C441.071 343.312 363.527 427.672 263.669 431.873ZM248.43 92.062C160.555 96.3001 92.7403 170.949 96.9335 258.826C101.127 346.704 175.741 414.557 263.621 410.408C351.563 406.257 419.476 331.577 415.28 243.636C411.084 155.695 336.369 87.8209 248.43 92.062Z"/><path transform="scale(0.84375 0.84375)" d="M166.697 287.952C162.507 295.799 159.47 304.902 155.193 312.874C147.903 326.465 129.738 317.726 136.22 302.101C139.106 294.611 143.013 287.61 146.494 280.355L181.406 206.542C185.369 198.163 188.232 186.4 197.942 184.308C213.127 182.699 215.917 197.647 221.278 209.193L256.805 284.747C260.227 291.824 264.618 299.123 267.133 306.541C270.44 316.497 254.344 328.626 245.972 311.038C243.369 305.571 236.83 293.436 235.378 287.952L204.625 287.952L166.697 287.952ZM200.521 215.943C199.414 219.494 196.017 225.666 194.304 229.353L184.771 249.97C181.987 255.847 179.217 261.232 176.681 267.257L200.521 267.257L224.219 267.257L209.96 235.629C207.283 229.685 203.927 221.219 200.521 215.943Z"/><path transform="scale(0.84375 0.84375)" d="M377.496 319.2L299.551 319.28C281.538 319.42 282.566 307.802 282.573 293.639L282.582 185.261C289.984 185.253 298.004 185.465 305.32 185.261L305.323 260.329C305.322 271.979 304.958 285.783 305.32 297.286L377.496 297.286L377.496 319.2Z"/></svg>